<svg xmlns="http://www.w3.org/2000/svg" width="100" height="100" viewBox="0 0 100 100"><rect width="100" height="100" fill="#1c1c1c" rx="20"/><g aria-label="lm" style="font-weight:900;font-size:57px;font-family:system-ui,sans-serif;letter-spacing:-2;text-anchor:middle"><path d="M28.4 69.46c2.1 0 4.33-.4 6.21-1.09l-1.94-6.5c-.57.18-1.2.23-1.53.23-1.49 0-2.28-.9-2.28-2.68V26.88h-9.7v33.74c0 5.64 3.37 8.84 9.24 8.84" style="fill:#f4f1ee"/><path d="M71.6 69h9.86V52.81c0-7.64-3.7-12.08-10.03-12.08-3.82 0-7.13 1.6-9.4 4.56-1.72-2.97-4.57-4.56-8.38-4.56-3.54 0-6.67 1.42-8.95 3.99l-1.54-3.65h-7.13V69h9.86V50.76a6.2 6.2 0 0 1 4.05-1.48c2.68 0 3.88 1.48 3.88 4.61V69h9.86V52.81q-.02-1.04-.12-2a6.3 6.3 0 0 1 4.16-1.53c2.68 0 3.88 1.48 3.88 4.61z" style="fill:#ffb300"/></g></svg>